Coordinates
version=1
nRows=14
nColumns=36
inDegrees=yes

Units are S.I. units (second, meters, Newtons, ...)
If the header above contains a line with 'inDegrees', this indicates whether rotational values are in degrees (yes) or radians (no).

endheader
time	pelvis_tilt	pelvis_list	pelvis_rotation	pelvis_tx	pelvis_ty	pelvis_tz	hip_flexion_r	hip_adduction_r	hip_rotation_r	knee_angle_r	knee_angle_r_beta	ankle_angle_r	subtalar_angle_r	mtp_angle_r	hip_flexion_l	hip_adduction_l	hip_rotation_l	knee_angle_l	knee_angle_l_beta	ankle_angle_l	subtalar_angle_l	mtp_angle_l	lumbar_extension	lumbar_bending	lumbar_rotation	arm_flex_r	arm_add_r	arm_rot_r	elbow_flex_r	pro_sup_r	arm_flex_l	arm_add_l	arm_rot_l	elbow_flex_l	pro_sup_l
      1.46666670	     -7.10659684	      1.22788656	     -7.63362033	     -0.12117039	      1.29065712	     -0.13845142	     13.47769001	     -1.21306080	     -3.71071962	     17.17148237	      0.29969890	     13.74681596	     -9.10566236	     -7.49999463	     16.73391392	     -0.78889436	      1.26286507	     21.55049448	      0.37612708	     13.06012450	     -3.93812793	     -7.49999463	     -7.80679204	      0.03392954	     -2.20691404	     12.11989103	     -9.25785641	     20.92484308	     19.99057003	     89.82419306	     10.43459635	    -10.19447448	     19.68875999	     17.67228963	     95.47894955
      1.48333330	     -7.05964723	      1.23337691	     -7.48276253	     -0.12056074	      1.29070946	     -0.13840684	     13.44514961	     -1.27001151	     -3.79474370	     17.25176770	      0.30110015	     13.74447798	     -9.04459042	     -7.49999504	     16.68821552	     -0.73401855	      1.35868804	     21.54006506	      0.37594506	     12.98954198	     -3.93095671	     -7.49999504	     -7.85354290	      0.00906690	     -2.24160849	     11.92645875	     -9.34310740	     21.00384831	     20.35866101	     88.46378688	     10.53224277	    -10.18553538	     19.81214440	     17.83367516	     94.40460542
      1.50000000	     -6.74718161	      1.21855380	     -7.45456595	     -0.11285026	      1.29419384	     -0.13348891	     12.87677282	     -1.25926388	     -3.84679148	     16.99618901	      0.29663946	     13.91989212	     -8.59702914	     -7.49999529	     16.14719478	     -0.72459770	      1.30848447	     21.33960106	      0.37244630	     12.77337711	     -3.89569227	     -7.49999529	     -7.95930340	     -0.10125193	     -2.25325524	     11.96677967	     -9.24855500	     21.44727018	     20.01205001	     89.06200200	     10.71502600	    -10.22476832	     20.42711674	     17.76365395	     94.97332207
      1.51666670	     -6.74893748	      1.22927089	     -7.39761801	     -0.12093271	      1.29090508	     -0.13841796	     12.87754698	     -1.24379991	     -3.74675207	     17.04731328	      0.29753175	     13.78319758	     -8.77296617	     -7.49999537	     16.10981697	     -0.68451699	      1.35068185	     21.32919687	      0.37226471	     12.84935228	     -3.88595510	     -7.49999537	     -7.87539565	     -0.14113037	     -2.32703381	     11.91986559	     -9.18350833	     21.30282801	     19.82412032	     88.68776828	     10.76499695	    -10.25756611	     20.54805581	     17.68991793	     94.35577172
      1.53333330	     -6.65429100	      1.25345367	     -7.46059581	     -0.11334594	      1.28740746	     -0.13361189	     12.72717936	     -1.27478470	     -3.78998461	     17.03818663	      0.29737246	     13.93239170	     -8.65141492	     -7.49999567	     15.85478569	     -0.67010706	      1.30188964	     21.27481870	      0.37131563	     12.92392423	     -3.87795110	     -7.49999567	     -7.78927571	     -0.22783140	     -2.24643479	     11.92255345	     -9.07532196	     21.44570561	     19.81761749	     88.36693969	     10.74984541	    -10.26308606	     20.89082806	     17.46797570	     93.82083680
      1.55000000	     -6.58281572	      1.25589928	     -7.50692563	     -0.11260569	      1.29110202	     -0.13338737	     12.59210038	     -1.25891570	     -3.78099221	     16.91614457	      0.29524242	     13.87929843	     -8.78730889	     -7.49999679	     15.73964762	     -0.68180085	      1.34283718	     21.31594971	      0.37203351	     13.09338315	     -3.85010444	     -7.49999679	     -7.72949317	     -0.28747340	     -2.18097977	     12.00322195	     -8.92155779	     22.08765054	     19.32699355	     85.42342652	     10.60136868	    -10.20236964	     21.74591318	     17.06832775	     90.17700438
      1.56666670	     -6.43490478	      1.24756586	     -7.48673820	     -0.11360186	      1.29104579	     -0.13358998	     12.33675400	     -1.24750117	     -3.78448881	     16.81770907	      0.29352440	     13.91286772	     -8.69750924	     -7.49999828	     15.54292332	     -0.71115546	      1.35443719	     21.23431381	      0.37060869	     13.10928209	     -3.73905349	     -7.49999828	     -7.83159764	     -0.33450205	     -2.14994100	     11.95414066	     -8.85094793	     20.68265927	     19.61562856	     91.00297722	     10.46941579	    -10.33560153	     20.43199016	     17.40217161	     96.11368898
      1.58333330	     -6.33807958	      1.23436626	     -7.53395210	     -0.11298101	      1.29129076	     -0.13347412	     12.13939105	     -1.20345900	     -3.69180898	     16.66295298	      0.29082339	     13.90840701	     -8.80301085	     -7.49999833	     15.30660543	     -0.73441420	      1.36155340	     21.04223290	      0.36725625	     13.11164986	     -3.74034022	     -7.49999833	     -7.79687260	     -0.38618903	     -2.01572099	     12.02574682	     -8.75071550	     20.70027547	     19.48012556	     90.38125029	     10.49146474	    -10.27397946	     20.44697439	     17.10297370	     95.83289055
      1.60000000	     -6.35942887	      1.23314857	     -7.44680675	     -0.12246151	      1.29478350	     -0.13884958	     12.23024562	     -1.21074444	     -3.61199242	     16.74800954	      0.29230791	     13.87565641	     -8.76628168	     -7.49999833	     15.41041455	     -0.72883890	      1.40143169	     21.07156434	      0.36776818	     13.11496703	     -3.71894814	     -7.49999833	     -7.83995311	     -0.37515603	     -2.03489823	     12.18727134	     -8.78640853	     20.69204823	     19.51934080	     90.38547946	     10.61464296	    -10.27828605	     20.45578638	     17.16691967	     95.84005209
      1.61666670	     -6.30406810	      1.20077682	     -7.46081964	     -0.11277655	      1.29444144	     -0.13352170	     12.13766790	     -1.17838896	     -3.65283348	     16.86713514	      0.29438704	     13.90662163	     -8.80652391	     -7.49999834	     15.31709124	     -0.77874926	      1.39968068	     21.16432445	      0.36938715	     13.10637489	     -3.74858457	     -7.49999834	     -7.76106055	     -0.38351434	     -1.94776485	     12.23298047	     -8.72133348	     20.70104760	     19.54948578	     90.39098122	     10.50744848	    -10.27758398	     20.46623477	     17.14714208	     95.84555319
      1.63333330	     -6.28872158	      1.17729721	     -7.44500144	     -0.12229263	      1.29111543	     -0.13896744	     12.38187159	     -1.18075049	     -3.69390998	     17.32555100	      0.30238791	     13.86862970	     -8.84615810	     -7.49999834	     15.43659098	     -0.78826098	      1.36499942	     21.30312612	      0.37180969	     13.27636990	     -3.81373425	     -7.49999834	     -7.95944944	     -0.30204309	     -1.99494150	     12.40424247	     -8.78526541	     20.68645663	     19.66719356	     90.34561518	     10.62398495	    -10.26206121	     20.47538150	     17.31363034	     95.78868052
      1.65000000	     -6.49079650	      1.25029825	     -7.41495811	     -0.12124761	      1.29072965	     -0.13868143	     12.90916783	     -1.27405888	     -3.68909515	     17.90940784	      0.31257813	     14.01184067	     -9.17709673	     -7.49999853	     15.88079021	     -0.72272704	      1.34579472	     21.64969644	      0.37785848	     13.48837111	     -3.93693082	     -7.49999853	     -7.80709164	     -0.32055961	     -2.07703949	     12.52306778	     -8.78200797	     20.83002892	     19.92532912	     88.40437574	     10.54207626	    -10.29746174	     20.62799869	     17.51000479	     94.07920047
      1.66666670	     -6.54550440	      1.30651388	     -7.43691903	     -0.12215809	      1.29050789	     -0.13873021	     13.09023688	     -1.36067273	     -3.83153145	     18.11328010	      0.31613638	     14.04921722	     -9.16693633	     -7.49999862	     16.10010916	     -0.65584205	      1.27863739	     21.77200717	      0.37999321	     13.69687048	     -3.76478856	     -7.49999862	     -7.86231049	     -0.32809533	     -2.00435973	     12.65059981	     -8.80216167	     21.04862819	     20.05768593	     87.39257928	     10.63482673	    -10.30029199	     20.79886396	     17.66765476	     93.33044111
      1.68333330	     -6.61214534	      1.35721982	     -7.39402509	     -0.12093436	      1.29037674	     -0.13838897	     13.16960943	     -1.46765074	     -3.92890415	     18.36917638	      0.32060261	     14.28642885	     -9.12762626	     -7.49999877	     16.22623083	     -0.58602878	      1.24658502	     21.88091948	      0.38189409	     13.49985386	     -3.77267270	     -7.49999877	     -7.80618948	     -0.30986911	     -2.17675785	     12.87825965	     -8.74027786	     21.48134691	     19.93138438	     86.28121520	     10.60636629	    -10.35890512	     21.15808340	     17.77732734	     92.12778254
